<?xml version="1.0" encoding="UTF-8"?>
<svg width="88px" height="137px" viewBox="0 0 88 137" version="1.1" xmlns="http://www.w3.org/2000/svg" xmlns:xlink="http://www.w3.org/1999/xlink">
    <title>Group 10</title>
    <g id="Page-1" stroke="none" stroke-width="1" fill="none" fill-rule="evenodd">
        <g id="Group-10">
            <g id="Group" transform="translate(19.000000, 12.000000)" fill="#D8D8D8" stroke="#5F6368" stroke-width="3">
                <rect id="Rectangle" x="1.5" y="1.5" width="1" height="15" rx="0.5"></rect>
                <rect id="Rectangle" x="7.5" y="1.5" width="1" height="15" rx="0.5"></rect>
                <rect id="Rectangle" x="13.5" y="1.5" width="1" height="15" rx="0.5"></rect>
                <rect id="Rectangle" x="19.5" y="1.5" width="1" height="15" rx="0.5"></rect>
            </g>
            <g id="Group-2" transform="translate(13.000000, 55.000000)" fill="#5F6368">
                <path d="M18,0 C27.9411255,0 36,8.0588745 36,18 C36,25.6502786 31.2273698,32.1858497 24.4970953,34.7917275 L20.5616951,25.3486457 C23.1775564,24.1774356 25,21.5515451 25,18.5 C25,14.3578644 21.6421356,11 17.5,11 C13.3578644,11 10,14.3578644 10,18.5 C10,21.5515451 11.8224436,24.1774356 14.4383049,25.3486457 L10.6523663,34.4369444 C4.37406649,31.6261363 0,25.3238771 0,18 C0,8.0588745 8.0588745,0 18,0 Z" id="Combined-Shape"></path>
            </g>
            <path d="M49.230067,24.5894949 L49.230067,4 C49.230067,1.790861 47.439206,3.51840692e-15 45.230067,0 L14.902115,0 C12.692976,4.05812251e-16 10.902115,1.790861 10.902115,4 L10.902115,25.4071662 C10.902115,27.6163052 9.111254,29.4071662 6.902115,29.4071662 C6.66003794,29.4071662 6.41846063,29.3851908 6.180357,29.3415106 L4.721758,29.0739296 C2.54887962,28.6753137 0.464271594,30.1136376 0.0656556589,32.286516 C0.0219753956,32.5246196 -1.91395559e-14,32.7661969 -2.13162821e-14,33.008274 L-2.13162821e-14,118.907969 C2.96152784e-06,121.117106 1.79086264,122.907966 4,122.907966 C4.00192572,122.907966 4.00385145,122.907964 4.00577717,122.907961 C14.4122358,122.892931 22.9303534,123.572415 29.5601302,124.946411 C37.0216433,126.492781 45.8885062,130.510644 56.1607189,137 C63.3743773,107.666667 73.3182433,87.4859769 85.9923167,76.4579307 C87.2502302,63.3530521 87.879187,57.4099104 87.879187,58.6285058 C88.757156,57.769203 84.8498611,61.9993691 76.1573023,71.3190039 C67.4647434,80.6386387 60.0882014,97.9697529 54.0276764,123.312346 C46.1483543,117.254806 37.9925056,114.226036 29.5601302,114.226036 C22.5512172,114.226036 16.223566,113.76545 10.5771766,112.844279 C8.64221895,112.528592 7.22124693,110.857012 7.22124693,108.896471 L7.22124693,41.4764062 C7.22124693,39.2672672 9.01210793,37.4764062 11.2212469,37.4764062 L13.3290651,37.4764062 C15.5382041,37.4764062 17.3290651,35.6855451 17.3290651,33.4764062 L17.3290651,10.8578207 C17.3290651,8.64868175 19.1199261,6.85782075 21.3290651,6.85782075 L37.9625277,6.85782075 C40.1716667,6.85782075 41.9625277,8.64868175 41.9625277,10.8578207 L41.9625277,32.4764062 C41.9625277,34.6855451 43.7533887,36.4764062 45.9625277,36.4764062 L48.0276764,36.4764062 C50.2368154,36.4764062 52.0276764,38.2672672 52.0276764,40.4764062 L52.0276764,54.9719538 C52.0276764,57.1810928 53.8185374,58.9719538 56.0276764,58.9719538 L56.4665175,58.9719538 C58.6756565,58.9719538 60.4665175,57.1810928 60.4665175,54.9719538 L60.4665175,39.4764062 L60.4665175,34.2077201 C60.4665175,31.9985811 58.6756565,30.2077201 56.4665175,30.2077201 L54.8482922,30.2077201 C51.7454321,30.2077201 49.230067,27.692355 49.230067,24.5894949 Z" id="Path-3" fill="#5F6368"></path>
        </g>
    </g>
</svg>