<?xml version="1.0" encoding="UTF-8"?>
<svg width="90px" height="115px" viewBox="0 0 90 115" version="1.1" xmlns="http://www.w3.org/2000/svg" xmlns:xlink="http://www.w3.org/1999/xlink">
    <title>Group 2</title>
    <g id="Page-1" stroke="none" stroke-width="1" fill="none" fill-rule="evenodd">
        <g id="Group-5">
            <g id="Group-3">
                <g id="Group" transform="translate(21.000000, 12.000000)" fill="#D8D8D8" stroke="#5F6368" stroke-width="3">
                    <rect id="Rectangle" x="1.5" y="1.5" width="1" height="15" rx="0.5"></rect>
                    <rect id="Rectangle" x="7.5" y="1.5" width="1" height="15" rx="0.5"></rect>
                    <rect id="Rectangle" x="13.5" y="1.5" width="1" height="15" rx="0.5"></rect>
                    <rect id="Rectangle" x="19.5" y="1.5" width="1" height="15" rx="0.5"></rect>
                </g>
                <path d="M51.230067,24.2077201 L51.230067,4 C51.230067,1.790861 49.439206,-4.05812251e-16 47.230067,0 L15.902115,0 C13.692976,2.36792184e-15 11.902115,1.790861 11.902115,4 L11.902115,26.2077201 C11.902115,28.4168591 10.111254,30.2077201 7.902115,30.2077201 L4,30.2077201 C1.790861,30.2077201 3.52565953e-14,31.9985811 0,34.2077201 L0,96.946404 C-6.71554016e-06,99.1555467 1.79085729,100.946411 4,100.946411 C15.0797533,100.946411 24.2664634,100.946411 31.5601302,100.946411 C39.7141736,100.946411 48.5810365,105.63094 58.1607189,115 C65.3743773,85.6666667 75.3182433,65.4859769 87.9923167,54.4579307 C89.2502302,41.3530521 89.879187,35.4099104 89.879187,36.6285058 C90.757156,35.769203 86.8498611,39.9993691 78.1573023,49.3190039 C69.4647434,58.6386387 62.0882014,75.9697529 56.0276764,101.312346 C48.1483543,93.9214725 39.9925056,90.2260356 31.5601302,90.2260356 C25.4471691,90.2260356 19.334208,90.2260356 13.2212469,90.2260356 C11.0121079,90.2260356 9.22124693,88.4351746 9.22124693,86.2260356 L9.22124693,41.4764062 C9.22124693,39.2672672 11.0121079,37.4764062 13.2212469,37.4764062 L15.3290651,37.4764062 C17.5382041,37.4764062 19.3290651,35.6855451 19.3290651,33.4764062 L19.3290651,11.8578207 C19.3290651,9.64868175 21.1199261,7.85782075 23.3290651,7.85782075 L39.9625277,7.85782075 C42.1716667,7.85782075 43.9625277,9.64868175 43.9625277,11.8578207 L43.9625277,32.4764062 C43.9625277,34.6855451 45.7533887,36.4764062 47.9625277,36.4764062 L50.0276764,36.4764062 C52.2368154,36.4764062 54.0276764,38.2672672 54.0276764,40.4764062 L54.0276764,54.9719538 C54.0276764,57.1810928 55.8185374,58.9719538 58.0276764,58.9719538 L59.4665175,58.9719538 C61.6756565,58.9719538 63.4665175,57.1810928 63.4665175,54.9719538 L63.4665175,39.4764062 L63.4665175,34.2077201 C63.4665175,31.9985811 61.6756565,30.2077201 59.4665175,30.2077201 L57.230067,30.2077201 C53.9163585,30.2077201 51.230067,27.5214286 51.230067,24.2077201 Z" id="Path-3" fill="#5F6368"></path>
            </g>
            <path d="M50,61.9226297 C50.0160777,68.6478857 46.3594957,74.8174942 40.5278375,77.9042934 C39.7098208,76.3797508 38.9704002,74.8123031 38.3126218,73.2084079 C38.1292936,72.7544723 37.9612428,72.3161896 37.8084693,71.9092129 C37.6556958,71.5022361 37.5487544,71.236136 37.4265356,70.891771 C36.9682151,69.5769231 36.6168361,68.3403399 36.2043476,66.9315742 C37.5815389,65.6816547 38.2301257,63.7910417 37.9190928,61.9331384 C37.6080599,60.075235 36.3816212,58.5141458 34.6766127,57.8059034 C34.0449178,57.5472047 33.3708441,57.4143881 32.6905573,57.4145796 C31.7376948,57.4120554 30.8024069,57.6773426 29.9864665,58.1815742 C29.8689331,58.2453651 29.756544,58.3186438 29.6503648,58.4007156 C29.427302,58.541245 29.2220479,58.7094854 29.0392708,58.90161 C28.9311826,58.9942842 28.8337933,59.0993196 28.7490012,59.2146691 C28.6453914,59.3073203 28.5530612,59.4124317 28.4740089,59.5277281 C28.3380008,59.7002451 28.2154062,59.8834244 28.1073525,60.0755814 C28.0458255,60.1659304 27.9897055,60.2600209 27.9393017,60.3573345 C27.876924,60.48481 27.8208364,60.6154159 27.7712508,60.7486583 C27.6943375,60.9090948 27.6329353,61.0768594 27.5879226,61.2495528 C27.5277777,61.4173963 27.4817775,61.5902107 27.4504265,61.7661002 C27.3712507,62.1310498 27.3302795,62.5036088 27.3282077,62.8774597 C27.3131141,63.0649769 27.3131141,63.2534489 27.3282077,63.440966 C27.3061059,63.6124039 27.3061059,63.7860755 27.3282077,63.9575134 C27.3649693,64.1269536 27.4108718,64.294175 27.4657038,64.4584079 C27.5107166,64.6311012 27.5721187,64.7988658 27.649032,64.9593023 C27.6935851,65.0769474 27.7445909,65.191919 27.8018055,65.3036673 L27.9851337,65.6480322 C28.0730096,65.8038406 28.1753313,65.9506128 28.2906807,66.0863148 C28.3843956,66.2323817 28.4918501,66.3686915 28.611505,66.4932916 C28.7284909,66.6392242 28.8618088,66.7705661 29.0087161,66.8846154 L22.7755576,79 C16.186701,74.8364498 12.8309369,66.9048673 14.369443,59.1315623 C15.9079491,51.3582573 22.0142705,45.3926447 29.6656421,44.1878354 C29.9487392,44.1359155 30.2343136,44.099341 30.5211737,44.0782648 C30.841998,44.0782648 31.147545,44.0782648 31.4683693,44 L32.4461197,44 L33.3933154,44 L34.1724602,44 L34.2641243,44 L35.0891011,44.1095707 L35.5015896,44.1095707 L35.914078,44.1095707 C41.3993028,45.2788862 46.015523,49.0498733 48.3498403,54.2683363 C49.448692,56.6622499 50.0123713,59.2772121 50,61.9226297 Z" id="Path" fill="#5F6368" fill-rule="nonzero"></path>
        </g>
    </g>
</svg>